<mxfile host="app.diagrams.net" agent="Mozilla/5.0 (X11; Linux x86_64) AppleWebKit/537.36 (KHTML, like Gecko) Chrome/126.0.0.0 Safari/537.36" version="24.7.16">
  <diagram name="PÃ¡gina-1" id="ggVTarNz9FR4x0iLIGYC">
    <mxGraphModel dx="794" dy="724" grid="1" gridSize="10" guides="1" tooltips="1" connect="1" arrows="1" fold="1" page="1" pageScale="1" pageWidth="827" pageHeight="1169" math="0" shadow="0">
      <root>
        <mxCell id="0" />
        <mxCell id="1" parent="0" />
        <mxCell id="zS6jcurBWLkxmYHvAaZN-1" value="CLIENTE" style="whiteSpace=wrap;html=1;" vertex="1" parent="1">
          <mxGeometry x="90" y="100" width="120" height="60" as="geometry" />
        </mxCell>
        <mxCell id="zS6jcurBWLkxmYHvAaZN-2" value="ARTICULO" style="whiteSpace=wrap;html=1;" vertex="1" parent="1">
          <mxGeometry x="80" y="368.33" width="120" height="60" as="geometry" />
        </mxCell>
        <mxCell id="zS6jcurBWLkxmYHvAaZN-3" value="Saldo&amp;nbsp; &amp;nbsp;limite&amp;nbsp; &amp;nbsp;descuento" style="text;html=1;align=center;verticalAlign=middle;resizable=0;points=[];autosize=1;strokeColor=none;fillColor=none;" vertex="1" parent="1">
          <mxGeometry x="80" y="190" width="160" height="30" as="geometry" />
        </mxCell>
        <mxCell id="zS6jcurBWLkxmYHvAaZN-4" value="Num_Cliente&amp;nbsp; &amp;nbsp; &amp;nbsp; &amp;nbsp; &amp;nbsp; direcciones" style="text;html=1;align=center;verticalAlign=middle;resizable=0;points=[];autosize=1;strokeColor=none;fillColor=none;" vertex="1" parent="1">
          <mxGeometry x="65" y="50" width="190" height="30" as="geometry" />
        </mxCell>
        <mxCell id="zS6jcurBWLkxmYHvAaZN-5" value="NUm_articulo&amp;nbsp; &amp;nbsp; &amp;nbsp; fabrica&amp;nbsp; &amp;nbsp; &amp;nbsp; stock&amp;nbsp; &amp;nbsp; &amp;nbsp; &amp;nbsp; descripcion" style="text;html=1;align=center;verticalAlign=middle;resizable=0;points=[];autosize=1;strokeColor=none;fillColor=none;" vertex="1" parent="1">
          <mxGeometry x="15" y="448.33" width="290" height="30" as="geometry" />
        </mxCell>
        <mxCell id="zS6jcurBWLkxmYHvAaZN-6" value="PEDIDO" style="whiteSpace=wrap;html=1;" vertex="1" parent="1">
          <mxGeometry x="510" y="110" width="120" height="60" as="geometry" />
        </mxCell>
        <mxCell id="zS6jcurBWLkxmYHvAaZN-7" value="FABRICA" style="whiteSpace=wrap;html=1;" vertex="1" parent="1">
          <mxGeometry x="490" y="368.33" width="120" height="60" as="geometry" />
        </mxCell>
        <mxCell id="zS6jcurBWLkxmYHvAaZN-8" value="Num_fabrica&amp;nbsp; &amp;nbsp; &amp;nbsp;telefono" style="text;html=1;align=center;verticalAlign=middle;resizable=0;points=[];autosize=1;strokeColor=none;fillColor=none;" vertex="1" parent="1">
          <mxGeometry x="490" y="458.33" width="150" height="30" as="geometry" />
        </mxCell>
        <mxCell id="zS6jcurBWLkxmYHvAaZN-9" value="" style="endArrow=none;html=1;rounded=0;entryX=0;entryY=0.5;entryDx=0;entryDy=0;exitX=1.025;exitY=0.633;exitDx=0;exitDy=0;exitPerimeter=0;" edge="1" parent="1" source="zS6jcurBWLkxmYHvAaZN-1" target="zS6jcurBWLkxmYHvAaZN-6">
          <mxGeometry width="50" height="50" relative="1" as="geometry">
            <mxPoint x="310" y="400" as="sourcePoint" />
            <mxPoint x="360" y="350" as="targetPoint" />
          </mxGeometry>
        </mxCell>
        <mxCell id="zS6jcurBWLkxmYHvAaZN-10" value="hace" style="rhombus;whiteSpace=wrap;html=1;" vertex="1" parent="1">
          <mxGeometry x="340" y="120" width="40" height="40" as="geometry" />
        </mxCell>
        <mxCell id="zS6jcurBWLkxmYHvAaZN-11" value="(1,n)" style="text;html=1;align=center;verticalAlign=middle;resizable=0;points=[];autosize=1;strokeColor=none;fillColor=none;" vertex="1" parent="1">
          <mxGeometry x="465" y="98" width="50" height="30" as="geometry" />
        </mxCell>
        <mxCell id="zS6jcurBWLkxmYHvAaZN-12" value="(1,1)" style="text;html=1;align=center;verticalAlign=middle;resizable=0;points=[];autosize=1;strokeColor=none;fillColor=none;" vertex="1" parent="1">
          <mxGeometry x="205" y="100" width="50" height="30" as="geometry" />
        </mxCell>
        <mxCell id="zS6jcurBWLkxmYHvAaZN-15" value="" style="endArrow=none;html=1;rounded=0;entryX=0.25;entryY=1;entryDx=0;entryDy=0;exitX=1;exitY=0.25;exitDx=0;exitDy=0;" edge="1" parent="1" source="zS6jcurBWLkxmYHvAaZN-2">
          <mxGeometry width="50" height="50" relative="1" as="geometry">
            <mxPoint x="200" y="383.33" as="sourcePoint" />
            <mxPoint x="336.66666666666674" y="329.9966666666666" as="targetPoint" />
          </mxGeometry>
        </mxCell>
        <mxCell id="zS6jcurBWLkxmYHvAaZN-14" value="contiene" style="rhombus;whiteSpace=wrap;html=1;" vertex="1" parent="1">
          <mxGeometry x="320" y="298" width="50" height="50" as="geometry" />
        </mxCell>
        <mxCell id="zS6jcurBWLkxmYHvAaZN-16" value="" style="endArrow=none;html=1;rounded=0;exitX=1;exitY=0.5;exitDx=0;exitDy=0;entryX=0;entryY=0.5;entryDx=0;entryDy=0;" edge="1" parent="1" source="zS6jcurBWLkxmYHvAaZN-17" target="zS6jcurBWLkxmYHvAaZN-7">
          <mxGeometry width="50" height="50" relative="1" as="geometry">
            <mxPoint x="290" y="438.33" as="sourcePoint" />
            <mxPoint x="340" y="388.33" as="targetPoint" />
          </mxGeometry>
        </mxCell>
        <mxCell id="zS6jcurBWLkxmYHvAaZN-18" value="" style="endArrow=none;html=1;rounded=0;exitX=1;exitY=0.5;exitDx=0;exitDy=0;entryX=0;entryY=0.5;entryDx=0;entryDy=0;" edge="1" parent="1" source="zS6jcurBWLkxmYHvAaZN-2" target="zS6jcurBWLkxmYHvAaZN-17">
          <mxGeometry width="50" height="50" relative="1" as="geometry">
            <mxPoint x="200" y="398.33" as="sourcePoint" />
            <mxPoint x="490" y="398.33" as="targetPoint" />
          </mxGeometry>
        </mxCell>
        <mxCell id="zS6jcurBWLkxmYHvAaZN-17" value="crea" style="rhombus;whiteSpace=wrap;html=1;" vertex="1" parent="1">
          <mxGeometry x="330" y="378.33" width="40" height="40" as="geometry" />
        </mxCell>
        <mxCell id="zS6jcurBWLkxmYHvAaZN-20" value="(1,n)" style="text;html=1;align=center;verticalAlign=middle;resizable=0;points=[];autosize=1;strokeColor=none;fillColor=none;" vertex="1" parent="1">
          <mxGeometry x="185" y="336.33" width="50" height="30" as="geometry" />
        </mxCell>
        <mxCell id="zS6jcurBWLkxmYHvAaZN-21" value="(1,n)" style="text;html=1;align=center;verticalAlign=middle;resizable=0;points=[];autosize=1;strokeColor=none;fillColor=none;" vertex="1" parent="1">
          <mxGeometry x="435" y="396.33" width="50" height="30" as="geometry" />
        </mxCell>
        <mxCell id="zS6jcurBWLkxmYHvAaZN-22" value="cantidad&lt;div&gt;suministrada&lt;/div&gt;" style="text;html=1;align=center;verticalAlign=middle;resizable=0;points=[];autosize=1;strokeColor=none;fillColor=none;" vertex="1" parent="1">
          <mxGeometry x="320" y="408.33" width="90" height="40" as="geometry" />
        </mxCell>
        <mxCell id="zS6jcurBWLkxmYHvAaZN-23" value="Lin_Pedido" style="whiteSpace=wrap;html=1;" vertex="1" parent="1">
          <mxGeometry x="430" y="250" width="120" height="60" as="geometry" />
        </mxCell>
        <mxCell id="zS6jcurBWLkxmYHvAaZN-24" value="" style="whiteSpace=wrap;html=1;fillColor=none;" vertex="1" parent="1">
          <mxGeometry x="422.5" y="240" width="135" height="80" as="geometry" />
        </mxCell>
        <mxCell id="zS6jcurBWLkxmYHvAaZN-26" value="Cantidad&amp;nbsp; &amp;nbsp;Precio&amp;nbsp; &amp;nbsp;desc&amp;nbsp; &amp;nbsp;cod_precio" style="text;html=1;align=center;verticalAlign=middle;resizable=0;points=[];autosize=1;strokeColor=none;fillColor=none;" vertex="1" parent="1">
          <mxGeometry x="410" y="318" width="220" height="30" as="geometry" />
        </mxCell>
        <mxCell id="zS6jcurBWLkxmYHvAaZN-27" value="&amp;nbsp;*num" style="text;html=1;align=center;verticalAlign=middle;resizable=0;points=[];autosize=1;strokeColor=none;fillColor=none;" vertex="1" parent="1">
          <mxGeometry x="560" y="280" width="50" height="30" as="geometry" />
        </mxCell>
        <mxCell id="zS6jcurBWLkxmYHvAaZN-28" value="cod_precio" style="text;html=1;align=center;verticalAlign=middle;resizable=0;points=[];autosize=1;strokeColor=none;fillColor=none;" vertex="1" parent="1">
          <mxGeometry x="580" y="170" width="80" height="30" as="geometry" />
        </mxCell>
        <mxCell id="zS6jcurBWLkxmYHvAaZN-29" value="fecha" style="text;html=1;align=center;verticalAlign=middle;resizable=0;points=[];autosize=1;strokeColor=none;fillColor=none;" vertex="1" parent="1">
          <mxGeometry x="495" y="168" width="50" height="30" as="geometry" />
        </mxCell>
        <mxCell id="zS6jcurBWLkxmYHvAaZN-30" value="dir_envio" style="text;html=1;align=center;verticalAlign=middle;resizable=0;points=[];autosize=1;strokeColor=none;fillColor=none;" vertex="1" parent="1">
          <mxGeometry x="515" y="78" width="70" height="30" as="geometry" />
        </mxCell>
      </root>
    </mxGraphModel>
  </diagram>
</mxfile>
